<svg width="7" height="10" viewBox="0 0 7 10" fill="none" xmlns="http://www.w3.org/2000/svg">
<path fill-rule="evenodd" clip-rule="evenodd" d="M3.57865 5.25003C2.65531 5.25003 1.90836 4.50221 1.90836 3.57965C1.90836 2.65757 2.65531 1.90912 3.57865 1.90912C4.50166 1.90912 5.24926 2.65757 5.24926 3.57965C5.24926 4.50221 4.50166 5.25003 3.57865 5.25003M3.48394 0C1.54227 0 0 1.63678 0 3.65569C0 6.40791 2.95078 9.25191 2.95078 9.25191C3.34777 9.62783 3.59437 9.65847 4.01646 9.25191C4.01646 9.25191 7 6.40791 7 3.65569C7 1.63678 5.42544 0 3.48394 0" fill="#F55A5A"/>
</svg>
